<mxfile host="app.diagrams.net" modified="2023-07-24T16:19:08.159Z" agent="Mozilla/5.0 (Windows NT 10.0; Win64; x64) AppleWebKit/537.36 (KHTML, like Gecko) Chrome/114.0.0.0 YaBrowser/23.7.0.2534 Yowser/2.5 Safari/537.36" etag="fM9M2g9W4lm6l4CE5J8x" version="21.6.5" type="device">
  <diagram name="Страница 1" id="21KqcUrMDInzBxeBUqyp">
    <mxGraphModel dx="1002" dy="575" grid="1" gridSize="10" guides="1" tooltips="1" connect="1" arrows="1" fold="1" page="1" pageScale="1" pageWidth="827" pageHeight="1169" math="0" shadow="0">
      <root>
        <mxCell id="0" />
        <mxCell id="1" parent="0" />
        <mxCell id="130OGmUZ2VWAnEjLdOlT-1" value="Web" style="rounded=0;whiteSpace=wrap;html=1;" parent="1" vertex="1">
          <mxGeometry x="10" y="190" width="90" height="40" as="geometry" />
        </mxCell>
        <mxCell id="130OGmUZ2VWAnEjLdOlT-2" value="API&lt;br&gt;Gateway" style="rounded=0;whiteSpace=wrap;html=1;fillColor=#d5e8d4;strokeColor=#82b366;" parent="1" vertex="1">
          <mxGeometry x="140" y="145" width="60" height="130" as="geometry" />
        </mxCell>
        <mxCell id="130OGmUZ2VWAnEjLdOlT-10" value="Eureka-Server-service" style="shape=parallelogram;perimeter=parallelogramPerimeter;whiteSpace=wrap;html=1;fixedSize=1;fillColor=#d5e8d4;strokeColor=#82b366;" parent="1" vertex="1">
          <mxGeometry x="430" y="80" width="150" height="40" as="geometry" />
        </mxCell>
        <mxCell id="130OGmUZ2VWAnEjLdOlT-12" value="Config-service" style="shape=parallelogram;perimeter=parallelogramPerimeter;whiteSpace=wrap;html=1;fixedSize=1;fillColor=#d5e8d4;strokeColor=#82b366;" parent="1" vertex="1">
          <mxGeometry x="430" y="130" width="150" height="40" as="geometry" />
        </mxCell>
        <mxCell id="130OGmUZ2VWAnEjLdOlT-16" value="Elasticsearch" style="shape=parallelogram;perimeter=parallelogramPerimeter;whiteSpace=wrap;html=1;fixedSize=1;" parent="1" vertex="1">
          <mxGeometry x="180" y="406.2" width="130" height="30" as="geometry" />
        </mxCell>
        <mxCell id="130OGmUZ2VWAnEjLdOlT-18" value="Logstash" style="shape=parallelogram;perimeter=parallelogramPerimeter;whiteSpace=wrap;html=1;fixedSize=1;" parent="1" vertex="1">
          <mxGeometry x="180" y="446.2" width="130" height="30" as="geometry" />
        </mxCell>
        <mxCell id="130OGmUZ2VWAnEjLdOlT-19" value="Kibana" style="shape=parallelogram;perimeter=parallelogramPerimeter;whiteSpace=wrap;html=1;fixedSize=1;" parent="1" vertex="1">
          <mxGeometry x="180" y="486.2" width="130" height="30" as="geometry" />
        </mxCell>
        <mxCell id="130OGmUZ2VWAnEjLdOlT-21" value="MongoDB" style="shape=cylinder3;whiteSpace=wrap;html=1;boundedLbl=1;backgroundOutline=1;size=15;" parent="1" vertex="1">
          <mxGeometry x="530" y="446.2" width="60" height="80" as="geometry" />
        </mxCell>
        <mxCell id="130OGmUZ2VWAnEjLdOlT-22" value="PostgreSQL" style="shape=cylinder3;whiteSpace=wrap;html=1;boundedLbl=1;backgroundOutline=1;size=15;" parent="1" vertex="1">
          <mxGeometry x="403.5" y="430" width="96" height="100" as="geometry" />
        </mxCell>
        <mxCell id="130OGmUZ2VWAnEjLdOlT-28" value="" style="endArrow=none;html=1;rounded=0;entryX=0;entryY=0.5;entryDx=0;entryDy=0;" parent="1" target="130OGmUZ2VWAnEjLdOlT-2" edge="1">
          <mxGeometry width="50" height="50" relative="1" as="geometry">
            <mxPoint x="100" y="210" as="sourcePoint" />
            <mxPoint x="150" y="160" as="targetPoint" />
          </mxGeometry>
        </mxCell>
        <mxCell id="130OGmUZ2VWAnEjLdOlT-33" value="" style="endArrow=none;html=1;rounded=0;" parent="1" edge="1">
          <mxGeometry width="50" height="50" relative="1" as="geometry">
            <mxPoint x="220" y="50" as="sourcePoint" />
            <mxPoint x="220" y="210" as="targetPoint" />
          </mxGeometry>
        </mxCell>
        <mxCell id="130OGmUZ2VWAnEjLdOlT-36" value="" style="endArrow=none;html=1;rounded=0;" parent="1" edge="1">
          <mxGeometry width="50" height="50" relative="1" as="geometry">
            <mxPoint x="200" y="210" as="sourcePoint" />
            <mxPoint x="220" y="210" as="targetPoint" />
          </mxGeometry>
        </mxCell>
        <mxCell id="130OGmUZ2VWAnEjLdOlT-45" value="Auth-service" style="rounded=0;whiteSpace=wrap;html=1;" parent="1" vertex="1">
          <mxGeometry x="250" y="80" width="110" height="40" as="geometry" />
        </mxCell>
        <mxCell id="130OGmUZ2VWAnEjLdOlT-46" value="" style="endArrow=none;html=1;rounded=0;entryX=0;entryY=0.5;entryDx=0;entryDy=0;" parent="1" edge="1">
          <mxGeometry width="50" height="50" relative="1" as="geometry">
            <mxPoint x="220" y="99.78999999999999" as="sourcePoint" />
            <mxPoint x="250" y="99.78999999999999" as="targetPoint" />
          </mxGeometry>
        </mxCell>
        <mxCell id="130OGmUZ2VWAnEjLdOlT-53" value="" style="endArrow=none;html=1;rounded=0;entryX=-0.015;entryY=0.636;entryDx=0;entryDy=0;entryPerimeter=0;" parent="1" target="130OGmUZ2VWAnEjLdOlT-91" edge="1">
          <mxGeometry width="50" height="50" relative="1" as="geometry">
            <mxPoint x="220" y="209.63" as="sourcePoint" />
            <mxPoint x="250" y="209.63" as="targetPoint" />
          </mxGeometry>
        </mxCell>
        <mxCell id="130OGmUZ2VWAnEjLdOlT-56" value="Task-service" style="rounded=0;whiteSpace=wrap;html=1;" parent="1" vertex="1">
          <mxGeometry x="459.5" y="220" width="110" height="40" as="geometry" />
        </mxCell>
        <mxCell id="130OGmUZ2VWAnEjLdOlT-63" value="" style="endArrow=none;html=1;rounded=0;fillColor=#d5e8d4;strokeColor=#82b366;" parent="1" edge="1">
          <mxGeometry width="50" height="50" relative="1" as="geometry">
            <mxPoint x="420" y="70" as="sourcePoint" />
            <mxPoint x="590" y="70" as="targetPoint" />
          </mxGeometry>
        </mxCell>
        <mxCell id="130OGmUZ2VWAnEjLdOlT-64" value="" style="endArrow=none;html=1;rounded=0;fillColor=#d5e8d4;strokeColor=#82b366;" parent="1" edge="1">
          <mxGeometry width="50" height="50" relative="1" as="geometry">
            <mxPoint x="420" y="190" as="sourcePoint" />
            <mxPoint x="590" y="190" as="targetPoint" />
          </mxGeometry>
        </mxCell>
        <mxCell id="130OGmUZ2VWAnEjLdOlT-65" value="" style="endArrow=none;html=1;rounded=0;fillColor=#d5e8d4;strokeColor=#82b366;" parent="1" edge="1">
          <mxGeometry width="50" height="50" relative="1" as="geometry">
            <mxPoint x="420" y="70" as="sourcePoint" />
            <mxPoint x="420" y="190" as="targetPoint" />
          </mxGeometry>
        </mxCell>
        <mxCell id="130OGmUZ2VWAnEjLdOlT-66" value="" style="endArrow=none;html=1;rounded=0;fillColor=#d5e8d4;strokeColor=#82b366;" parent="1" edge="1">
          <mxGeometry width="50" height="50" relative="1" as="geometry">
            <mxPoint x="590" y="70" as="sourcePoint" />
            <mxPoint x="590" y="190" as="targetPoint" />
          </mxGeometry>
        </mxCell>
        <mxCell id="130OGmUZ2VWAnEjLdOlT-69" value="" style="endArrow=none;dashed=1;html=1;dashPattern=1 3;strokeWidth=2;rounded=0;" parent="1" edge="1">
          <mxGeometry width="50" height="50" relative="1" as="geometry">
            <mxPoint x="120" y="40" as="sourcePoint" />
            <mxPoint x="620" y="40" as="targetPoint" />
          </mxGeometry>
        </mxCell>
        <mxCell id="130OGmUZ2VWAnEjLdOlT-70" value="" style="endArrow=none;dashed=1;html=1;dashPattern=1 3;strokeWidth=2;rounded=0;" parent="1" edge="1">
          <mxGeometry width="50" height="50" relative="1" as="geometry">
            <mxPoint x="120" y="360" as="sourcePoint" />
            <mxPoint x="120" y="40" as="targetPoint" />
          </mxGeometry>
        </mxCell>
        <mxCell id="130OGmUZ2VWAnEjLdOlT-71" value="" style="endArrow=none;dashed=1;html=1;dashPattern=1 3;strokeWidth=2;rounded=0;" parent="1" edge="1">
          <mxGeometry width="50" height="50" relative="1" as="geometry">
            <mxPoint x="620" y="200" as="sourcePoint" />
            <mxPoint x="620" y="40" as="targetPoint" />
          </mxGeometry>
        </mxCell>
        <mxCell id="130OGmUZ2VWAnEjLdOlT-73" value="&lt;font color=&quot;#a1a1a1&quot; style=&quot;font-size: 11px;&quot;&gt;Spring-cloud&lt;/font&gt;" style="text;html=1;align=center;verticalAlign=middle;resizable=0;points=[];autosize=1;strokeColor=none;fillColor=none;" parent="1" vertex="1">
          <mxGeometry x="115" y="45" width="90" height="30" as="geometry" />
        </mxCell>
        <mxCell id="130OGmUZ2VWAnEjLdOlT-79" value="&lt;font color=&quot;#a1a1a1&quot;&gt;Databases&lt;/font&gt;" style="text;html=1;align=center;verticalAlign=middle;resizable=0;points=[];autosize=1;strokeColor=none;fillColor=none;fontSize=10;" parent="1" vertex="1">
          <mxGeometry x="562" y="406.2" width="70" height="30" as="geometry" />
        </mxCell>
        <mxCell id="130OGmUZ2VWAnEjLdOlT-80" value="Apache Kafka" style="shape=tape;whiteSpace=wrap;html=1;" parent="1" vertex="1">
          <mxGeometry x="467" y="280" width="95" height="50" as="geometry" />
        </mxCell>
        <mxCell id="130OGmUZ2VWAnEjLdOlT-83" value="" style="endArrow=none;html=1;rounded=0;" parent="1" edge="1">
          <mxGeometry width="50" height="50" relative="1" as="geometry">
            <mxPoint x="160" y="531.2" as="sourcePoint" />
            <mxPoint x="320" y="531.2" as="targetPoint" />
          </mxGeometry>
        </mxCell>
        <mxCell id="130OGmUZ2VWAnEjLdOlT-84" value="" style="endArrow=none;html=1;rounded=0;" parent="1" edge="1">
          <mxGeometry width="50" height="50" relative="1" as="geometry">
            <mxPoint x="160" y="371.2" as="sourcePoint" />
            <mxPoint x="320" y="371.2" as="targetPoint" />
          </mxGeometry>
        </mxCell>
        <mxCell id="130OGmUZ2VWAnEjLdOlT-85" value="" style="endArrow=none;html=1;rounded=0;" parent="1" edge="1">
          <mxGeometry width="50" height="50" relative="1" as="geometry">
            <mxPoint x="160" y="531.2" as="sourcePoint" />
            <mxPoint x="160" y="371.2" as="targetPoint" />
          </mxGeometry>
        </mxCell>
        <mxCell id="130OGmUZ2VWAnEjLdOlT-86" value="" style="endArrow=none;html=1;rounded=0;entryX=0.985;entryY=-0.04;entryDx=0;entryDy=0;entryPerimeter=0;" parent="1" target="130OGmUZ2VWAnEjLdOlT-87" edge="1">
          <mxGeometry width="50" height="50" relative="1" as="geometry">
            <mxPoint x="320" y="531.2" as="sourcePoint" />
            <mxPoint x="320" y="331.2" as="targetPoint" />
          </mxGeometry>
        </mxCell>
        <mxCell id="130OGmUZ2VWAnEjLdOlT-87" value="&lt;font color=&quot;#a1a1a1&quot; style=&quot;font-size: 10px;&quot;&gt;Metrics Store&lt;/font&gt;" style="text;html=1;align=center;verticalAlign=middle;resizable=0;points=[];autosize=1;strokeColor=none;fillColor=none;" parent="1" vertex="1">
          <mxGeometry x="240" y="371.2" width="80" height="30" as="geometry" />
        </mxCell>
        <mxCell id="130OGmUZ2VWAnEjLdOlT-91" value="CRUD(&lt;br&gt;User,&lt;br&gt;Chat,&lt;br&gt;Feed,&lt;br&gt;DB)" style="rounded=0;whiteSpace=wrap;html=1;" parent="1" vertex="1">
          <mxGeometry x="270" y="140" width="70" height="110" as="geometry" />
        </mxCell>
        <mxCell id="130OGmUZ2VWAnEjLdOlT-99" value="Task-handler" style="rounded=0;whiteSpace=wrap;html=1;" parent="1" vertex="1">
          <mxGeometry x="260" y="280" width="90" height="40" as="geometry" />
        </mxCell>
        <mxCell id="130OGmUZ2VWAnEjLdOlT-100" value="" style="endArrow=none;html=1;rounded=0;entryX=0.5;entryY=1;entryDx=0;entryDy=0;exitX=0.5;exitY=0;exitDx=0;exitDy=0;" parent="1" source="130OGmUZ2VWAnEjLdOlT-99" target="130OGmUZ2VWAnEjLdOlT-91" edge="1">
          <mxGeometry width="50" height="50" relative="1" as="geometry">
            <mxPoint x="300" y="260" as="sourcePoint" />
            <mxPoint x="260" y="255.37" as="targetPoint" />
          </mxGeometry>
        </mxCell>
        <mxCell id="130OGmUZ2VWAnEjLdOlT-110" value="" style="endArrow=none;html=1;rounded=0;entryX=1;entryY=1;entryDx=0;entryDy=0;" parent="1" edge="1">
          <mxGeometry width="50" height="50" relative="1" as="geometry">
            <mxPoint x="220" y="300" as="sourcePoint" />
            <mxPoint x="220" y="210" as="targetPoint" />
          </mxGeometry>
        </mxCell>
        <mxCell id="130OGmUZ2VWAnEjLdOlT-112" value="" style="endArrow=none;html=1;rounded=0;exitX=0;exitY=0.5;exitDx=0;exitDy=0;" parent="1" source="130OGmUZ2VWAnEjLdOlT-99" edge="1">
          <mxGeometry width="50" height="50" relative="1" as="geometry">
            <mxPoint x="230" y="310" as="sourcePoint" />
            <mxPoint x="220" y="300" as="targetPoint" />
          </mxGeometry>
        </mxCell>
        <mxCell id="130OGmUZ2VWAnEjLdOlT-133" value="" style="endArrow=none;html=1;rounded=0;" parent="1" edge="1">
          <mxGeometry width="50" height="50" relative="1" as="geometry">
            <mxPoint x="220" y="370" as="sourcePoint" />
            <mxPoint x="220" y="300" as="targetPoint" />
          </mxGeometry>
        </mxCell>
        <mxCell id="130OGmUZ2VWAnEjLdOlT-135" value="" style="endArrow=none;dashed=1;html=1;dashPattern=1 3;strokeWidth=2;rounded=0;" parent="1" edge="1">
          <mxGeometry width="50" height="50" relative="1" as="geometry">
            <mxPoint x="120" y="360" as="sourcePoint" />
            <mxPoint x="420" y="360" as="targetPoint" />
          </mxGeometry>
        </mxCell>
        <mxCell id="130OGmUZ2VWAnEjLdOlT-136" value="" style="endArrow=none;dashed=1;html=1;dashPattern=1 3;strokeWidth=2;rounded=0;" parent="1" edge="1">
          <mxGeometry width="50" height="50" relative="1" as="geometry">
            <mxPoint x="620" y="360" as="sourcePoint" />
            <mxPoint x="620" y="200" as="targetPoint" />
          </mxGeometry>
        </mxCell>
        <mxCell id="130OGmUZ2VWAnEjLdOlT-137" value="" style="endArrow=none;dashed=1;html=1;dashPattern=1 3;strokeWidth=2;rounded=0;" parent="1" edge="1">
          <mxGeometry width="50" height="50" relative="1" as="geometry">
            <mxPoint x="425" y="360" as="sourcePoint" />
            <mxPoint x="625" y="360" as="targetPoint" />
          </mxGeometry>
        </mxCell>
        <mxCell id="130OGmUZ2VWAnEjLdOlT-138" value="" style="endArrow=none;html=1;rounded=0;" parent="1" edge="1">
          <mxGeometry width="50" height="50" relative="1" as="geometry">
            <mxPoint x="510" y="50" as="sourcePoint" />
            <mxPoint x="220" y="50" as="targetPoint" />
          </mxGeometry>
        </mxCell>
        <mxCell id="130OGmUZ2VWAnEjLdOlT-139" value="" style="endArrow=none;html=1;rounded=0;" parent="1" edge="1">
          <mxGeometry width="50" height="50" relative="1" as="geometry">
            <mxPoint x="510" y="50" as="sourcePoint" />
            <mxPoint x="510" y="70" as="targetPoint" />
          </mxGeometry>
        </mxCell>
        <mxCell id="130OGmUZ2VWAnEjLdOlT-140" value="" style="endArrow=none;html=1;rounded=0;entryX=-0.002;entryY=0.405;entryDx=0;entryDy=0;entryPerimeter=0;" parent="1" target="130OGmUZ2VWAnEjLdOlT-80" edge="1">
          <mxGeometry width="50" height="50" relative="1" as="geometry">
            <mxPoint x="350" y="300" as="sourcePoint" />
            <mxPoint x="460" y="300" as="targetPoint" />
          </mxGeometry>
        </mxCell>
        <mxCell id="130OGmUZ2VWAnEjLdOlT-141" value="" style="endArrow=none;html=1;rounded=0;exitX=0.449;exitY=0.257;exitDx=0;exitDy=0;exitPerimeter=0;" parent="1" source="130OGmUZ2VWAnEjLdOlT-80" edge="1">
          <mxGeometry width="50" height="50" relative="1" as="geometry">
            <mxPoint x="460" y="310" as="sourcePoint" />
            <mxPoint x="510" y="260" as="targetPoint" />
          </mxGeometry>
        </mxCell>
        <mxCell id="130OGmUZ2VWAnEjLdOlT-142" value="" style="endArrow=classic;startArrow=classic;html=1;rounded=0;exitX=0.38;exitY=0;exitDx=0;exitDy=0;exitPerimeter=0;" parent="1" source="130OGmUZ2VWAnEjLdOlT-22" edge="1">
          <mxGeometry width="50" height="50" relative="1" as="geometry">
            <mxPoint x="440" y="410" as="sourcePoint" />
            <mxPoint x="340" y="200" as="targetPoint" />
            <Array as="points">
              <mxPoint x="440" y="390" />
              <mxPoint x="400" y="390" />
              <mxPoint x="400" y="200" />
            </Array>
          </mxGeometry>
        </mxCell>
        <mxCell id="130OGmUZ2VWAnEjLdOlT-143" value="" style="endArrow=classic;startArrow=classic;html=1;rounded=0;" parent="1" edge="1">
          <mxGeometry width="50" height="50" relative="1" as="geometry">
            <mxPoint x="560" y="440" as="sourcePoint" />
            <mxPoint x="360" y="100" as="targetPoint" />
            <Array as="points">
              <mxPoint x="560" y="390" />
              <mxPoint x="400" y="390" />
              <mxPoint x="400" y="100" />
            </Array>
          </mxGeometry>
        </mxCell>
        <mxCell id="130OGmUZ2VWAnEjLdOlT-144" value="" style="endArrow=classic;html=1;rounded=0;entryX=1;entryY=0.75;entryDx=0;entryDy=0;" parent="1" target="130OGmUZ2VWAnEjLdOlT-99" edge="1">
          <mxGeometry width="50" height="50" relative="1" as="geometry">
            <mxPoint x="400" y="310" as="sourcePoint" />
            <mxPoint x="380" y="330" as="targetPoint" />
          </mxGeometry>
        </mxCell>
        <mxCell id="130OGmUZ2VWAnEjLdOlT-145" value="" style="endArrow=none;dashed=1;html=1;rounded=0;" parent="1" edge="1">
          <mxGeometry width="50" height="50" relative="1" as="geometry">
            <mxPoint x="630" y="540" as="sourcePoint" />
            <mxPoint x="380" y="540" as="targetPoint" />
          </mxGeometry>
        </mxCell>
        <mxCell id="130OGmUZ2VWAnEjLdOlT-146" value="" style="endArrow=none;dashed=1;html=1;rounded=0;" parent="1" edge="1">
          <mxGeometry width="50" height="50" relative="1" as="geometry">
            <mxPoint x="630" y="411.2" as="sourcePoint" />
            <mxPoint x="630" y="541.2" as="targetPoint" />
          </mxGeometry>
        </mxCell>
        <mxCell id="130OGmUZ2VWAnEjLdOlT-147" value="" style="endArrow=none;dashed=1;html=1;rounded=0;" parent="1" edge="1">
          <mxGeometry width="50" height="50" relative="1" as="geometry">
            <mxPoint x="380" y="410" as="sourcePoint" />
            <mxPoint x="380" y="541.2" as="targetPoint" />
            <Array as="points">
              <mxPoint x="380" y="471.2" />
            </Array>
          </mxGeometry>
        </mxCell>
        <mxCell id="130OGmUZ2VWAnEjLdOlT-151" value="" style="endArrow=none;dashed=1;html=1;rounded=0;" parent="1" edge="1">
          <mxGeometry width="50" height="50" relative="1" as="geometry">
            <mxPoint x="630" y="410" as="sourcePoint" />
            <mxPoint x="380" y="410" as="targetPoint" />
          </mxGeometry>
        </mxCell>
      </root>
    </mxGraphModel>
  </diagram>
</mxfile>
